<svg width="210" height="43" viewBox="0 0 210 43" fill="none" xmlns="http://www.w3.org/2000/svg">
<path d="M6.36 27.56H15.56V32H0.76V4.08H6.36V27.56ZM17.6794 20.84C17.6794 18.6 18.1194 16.6133 18.9994 14.88C19.906 13.1467 21.1194 11.8133 22.6394 10.88C24.186 9.94667 25.906 9.48 27.7994 9.48C29.4527 9.48 30.8927 9.81333 32.1194 10.48C33.3727 11.1467 34.3727 11.9867 35.1194 13V9.84H40.7594V32H35.1194V28.76C34.3994 29.8 33.3994 30.6667 32.1194 31.36C30.866 32.0267 29.4127 32.36 27.7594 32.36C25.8927 32.36 24.186 31.88 22.6394 30.92C21.1194 29.96 19.906 28.6133 18.9994 26.88C18.1194 25.12 17.6794 23.1067 17.6794 20.84ZM35.1194 20.92C35.1194 19.56 34.8527 18.4 34.3194 17.44C33.786 16.4533 33.066 15.7067 32.1594 15.2C31.2527 14.6667 30.2794 14.4 29.2394 14.4C28.1994 14.4 27.2394 14.6533 26.3594 15.16C25.4794 15.6667 24.7594 16.4133 24.1994 17.4C23.666 18.36 23.3994 19.5067 23.3994 20.84C23.3994 22.1733 23.666 23.3467 24.1994 24.36C24.7594 25.3467 25.4794 26.1067 26.3594 26.64C27.266 27.1733 28.226 27.44 29.2394 27.44C30.2794 27.44 31.2527 27.1867 32.1594 26.68C33.066 26.1467 33.786 25.4 34.3194 24.44C34.8527 23.4533 35.1194 22.28 35.1194 20.92ZM73.7488 9.52C76.4688 9.52 78.6554 10.36 80.3088 12.04C81.9888 13.6933 82.8288 16.0133 82.8288 19V32H77.2288V19.76C77.2288 18.0267 76.7888 16.7067 75.9088 15.8C75.0288 14.8667 73.8288 14.4 72.3088 14.4C70.7888 14.4 69.5754 14.8667 68.6688 15.8C67.7888 16.7067 67.3488 18.0267 67.3488 19.76V32H61.7488V19.76C61.7488 18.0267 61.3088 16.7067 60.4288 15.8C59.5488 14.8667 58.3488 14.4 56.8288 14.4C55.2821 14.4 54.0554 14.8667 53.1488 15.8C52.2688 16.7067 51.8288 18.0267 51.8288 19.76V32H46.2288V9.84H51.8288V12.52C52.5488 11.5867 53.4688 10.8533 54.5888 10.32C55.7354 9.78666 56.9888 9.52 58.3488 9.52C60.0821 9.52 61.6288 9.89333 62.9888 10.64C64.3488 11.36 65.4021 12.4 66.1488 13.76C66.8688 12.48 67.9088 11.4533 69.2688 10.68C70.6554 9.90667 72.1488 9.52 73.7488 9.52ZM93.7428 13.04C94.4628 12.0267 95.4495 11.1867 96.7028 10.52C97.9828 9.82667 99.4361 9.48 101.063 9.48C102.956 9.48 104.663 9.94667 106.183 10.88C107.729 11.8133 108.943 13.1467 109.823 14.88C110.729 16.5867 111.183 18.5733 111.183 20.84C111.183 23.1067 110.729 25.12 109.823 26.88C108.943 28.6133 107.729 29.96 106.183 30.92C104.663 31.88 102.956 32.36 101.063 32.36C99.4361 32.36 97.9961 32.0267 96.7428 31.36C95.5161 30.6933 94.5161 29.8533 93.7428 28.84V42.56H88.1428V9.84H93.7428V13.04ZM105.463 20.84C105.463 19.5067 105.183 18.36 104.623 17.4C104.089 16.4133 103.369 15.6667 102.463 15.16C101.583 14.6533 100.623 14.4 99.5828 14.4C98.5695 14.4 97.6095 14.6667 96.7028 15.2C95.8228 15.7067 95.1028 16.4533 94.5428 17.44C94.0095 18.4267 93.7428 19.5867 93.7428 20.92C93.7428 22.2533 94.0095 23.4133 94.5428 24.4C95.1028 25.3867 95.8228 26.1467 96.7028 26.68C97.6095 27.1867 98.5695 27.44 99.5828 27.44C100.623 27.44 101.583 27.1733 102.463 26.64C103.369 26.1067 104.089 25.3467 104.623 24.36C105.183 23.3733 105.463 22.2 105.463 20.84Z" fill="white"/>
<path d="M120.852 27.56H130.052V32H115.252V4.08H120.852V27.56ZM136.452 7.2C135.465 7.2 134.638 6.89333 133.972 6.28C133.332 5.64 133.012 4.85333 133.012 3.92C133.012 2.98667 133.332 2.21333 133.972 1.6C134.638 0.959998 135.465 0.639998 136.452 0.639998C137.438 0.639998 138.252 0.959998 138.892 1.6C139.558 2.21333 139.892 2.98667 139.892 3.92C139.892 4.85333 139.558 5.64 138.892 6.28C138.252 6.89333 137.438 7.2 136.452 7.2ZM139.212 9.84V32H133.612V9.84H139.212ZM153.424 9.48C155.078 9.48 156.531 9.81333 157.784 10.48C159.038 11.12 160.024 11.96 160.744 13V9.84H166.384V32.16C166.384 34.2133 165.971 36.04 165.144 37.64C164.318 39.2667 163.078 40.5467 161.424 41.48C159.771 42.44 157.771 42.92 155.424 42.92C152.278 42.92 149.691 42.1867 147.664 40.72C145.664 39.2533 144.531 37.2533 144.264 34.72H149.824C150.118 35.7333 150.744 36.5333 151.704 37.12C152.691 37.7333 153.878 38.04 155.264 38.04C156.891 38.04 158.211 37.5467 159.224 36.56C160.238 35.6 160.744 34.1333 160.744 32.16V28.72C160.024 29.76 159.024 30.6267 157.744 31.32C156.491 32.0133 155.051 32.36 153.424 32.36C151.558 32.36 149.851 31.88 148.304 30.92C146.758 29.96 145.531 28.6133 144.624 26.88C143.744 25.12 143.304 23.1067 143.304 20.84C143.304 18.6 143.744 16.6133 144.624 14.88C145.531 13.1467 146.744 11.8133 148.264 10.88C149.811 9.94667 151.531 9.48 153.424 9.48ZM160.744 20.92C160.744 19.56 160.478 18.4 159.944 17.44C159.411 16.4533 158.691 15.7067 157.784 15.2C156.878 14.6667 155.904 14.4 154.864 14.4C153.824 14.4 152.864 14.6533 151.984 15.16C151.104 15.6667 150.384 16.4133 149.824 17.4C149.291 18.36 149.024 19.5067 149.024 20.84C149.024 22.1733 149.291 23.3467 149.824 24.36C150.384 25.3467 151.104 26.1067 151.984 26.64C152.891 27.1733 153.851 27.44 154.864 27.44C155.904 27.44 156.878 27.1867 157.784 26.68C158.691 26.1467 159.411 25.4 159.944 24.44C160.478 23.4533 160.744 22.28 160.744 20.92ZM184.334 9.52C186.014 9.52 187.507 9.89333 188.814 10.64C190.12 11.36 191.134 12.44 191.854 13.88C192.6 15.2933 192.974 17 192.974 19V32H187.374V19.76C187.374 18 186.934 16.6533 186.054 15.72C185.174 14.76 183.974 14.28 182.454 14.28C180.907 14.28 179.68 14.76 178.774 15.72C177.894 16.6533 177.454 18 177.454 19.76V32H171.854V2.4H177.454V12.6C178.174 11.64 179.134 10.8933 180.334 10.36C181.534 9.8 182.867 9.52 184.334 9.52ZM204.819 14.44V25.16C204.819 25.9067 204.992 26.4533 205.339 26.8C205.712 27.12 206.326 27.28 207.179 27.28H209.779V32H206.259C201.539 32 199.179 29.7067 199.179 25.12V14.44H196.539V9.84H199.179V4.36H204.819V9.84H209.779V14.44H204.819Z" fill="#FF8200"/>
</svg>
